<?xml version="1.0" encoding="iso-8859-1"?>
<!-- Generator: Adobe Illustrator 19.0.0, SVG Export Plug-In . SVG Version: 6.00 Build 0)  -->
<svg version="1.1" id="Capa_1" xmlns="http://www.w3.org/2000/svg" xmlns:xlink="http://www.w3.org/1999/xlink" x="0px" y="0px"
	 viewBox="0 0 512.001 512.001" style="enable-background:new 0 0 512.001 512.001;" xml:space="preserve">
<path style="fill:#EDEDED;" d="M413.763,463.966c-43.954,16.271-92.95-6.25-109.221-50.204
	c-16.271-43.954,6.251-92.95,50.204-109.221c43.954-16.271,92.95,6.251,109.221,50.204
	C480.238,398.699,457.716,447.695,413.763,463.966z"/>
<path style="fill:#A0A0A0;" d="M503.728,411.656l-21.084-9.692c1.652-9.091,2.063-18.47,1.102-27.884l21.723-8.042
	c5.179-1.917,7.824-7.67,5.906-12.85l-10.415-28.134c-1.917-5.179-7.67-7.824-12.85-5.906l-21.723,8.042
	c-5.4-7.77-11.819-14.621-18.993-20.445l9.691-21.084c2.307-5.018,0.109-10.956-4.91-13.263l-27.258-12.529
	c-5.018-2.307-10.956-0.108-13.263,4.91l-9.691,21.084c-9.091-1.652-18.47-2.063-27.884-1.102l-8.042-21.723
	c-1.917-5.179-7.67-7.824-12.85-5.906l-28.134,10.415c-5.179,1.917-7.824,7.67-5.906,12.85l8.042,21.723
	c-7.77,5.4-14.621,11.819-20.445,18.993l-14.492-6.661l-6.593-3.03c-5.018-2.307-10.956-0.108-13.263,4.91l-12.529,27.258
	c-2.307,5.018-0.109,10.956,4.91,13.263l21.084,9.691c-1.652,9.091-2.063,18.47-1.102,27.884l-21.723,8.042
	c-5.179,1.917-7.824,7.67-5.906,12.85l10.415,28.134c1.917,5.179,7.67,7.824,12.85,5.906l21.723-8.042
	c5.4,7.77,11.819,14.621,18.993,20.445l-9.691,21.084c-2.307,5.018-0.109,10.956,4.91,13.263l27.258,12.529
	c5.018,2.307,10.956,0.109,13.263-4.91l9.692-21.084c9.091,1.652,18.47,2.063,27.884,1.102l8.042,21.723
	c1.917,5.179,7.67,7.824,12.85,5.906l28.134-10.415c5.179-1.917,7.824-7.67,5.906-12.85l-8.042-21.723
	c7.77-5.4,14.621-11.819,20.445-18.993l21.084,9.692c5.018,2.307,10.956,0.109,13.263-4.91l12.529-27.258
	C510.945,419.9,508.747,413.962,503.728,411.656z M408.555,449.9c-36.198,13.4-76.548-5.148-89.948-41.345
	s5.148-76.548,41.345-89.948c36.198-13.4,76.548,5.148,89.948,41.345C463.3,396.149,444.753,436.5,408.555,449.9z"/>
<g>
	<path style="fill:#757575;" d="M463.967,354.745c-16.271-43.954-65.267-66.475-109.221-50.204s-66.475,65.267-50.204,109.221
		s65.267,66.475,109.221,50.204C457.716,447.695,480.238,398.698,463.967,354.745z M408.555,449.899
		c-36.198,13.4-76.548-5.147-89.948-41.345s5.147-76.548,41.345-89.948s76.548,5.148,89.948,41.345
		C463.3,396.149,444.753,436.5,408.555,449.899z"/>
	<path style="fill:#757575;" d="M403.222,369.331c0.844-2.271,1.329-4.715,1.329-7.276c0-11.561-9.405-20.965-20.966-20.965h-17.953
		c-4.143,0-7.5,3.358-7.5,7.5v26.931v40.396c0,4.142,3.357,7.5,7.5,7.5h29.175c15.272,0,27.697-12.425,27.697-27.698
		C422.504,383.378,414.392,372.901,403.222,369.331z M373.132,356.089h10.453c3.29,0,5.966,2.676,5.966,5.965
		s-2.676,5.965-5.966,5.965h-10.453V356.089z M394.807,408.415h-21.675V383.02h10.453h11.222c7.001,0,12.697,5.696,12.697,12.698
		S401.808,408.415,394.807,408.415z M510.117,261.065c-1.481,1.675-3.546,2.53-5.619,2.53c-1.767,0-3.54-0.621-4.968-1.883
		c-38.022-33.648-87.957-51.657-138.224-50.124l14.483,7.292c3.699,1.862,5.188,6.372,3.326,10.071
		c-1.318,2.618-3.961,4.129-6.705,4.129c-1.134,0-2.285-0.258-3.367-0.803l-30.315-15.263c-3.699-1.862-5.188-6.372-3.326-10.071
		l15.263-30.316c1.864-3.699,6.372-5.189,10.072-3.326c3.699,1.862,5.188,6.372,3.326,10.071l-6.723,13.354
		c55.231-2.613,110.376,16.801,152.131,53.752C512.573,253.224,512.862,257.964,510.117,261.065z"/>
</g>
<path style="fill:#B1EAD4;" d="M207.192,253.865c-52.324,26.588-116.524,5.65-143.111-46.675
	c-26.588-52.323-5.65-116.523,46.674-143.11c52.324-26.588,116.524-5.65,143.111,46.675
	C280.454,163.078,259.516,227.278,207.192,253.865z"/>
<path style="fill:#7CC3AC;" d="M240.664,251.592c8.762-7.73,16.251-16.58,22.373-26.208l27.242,8.885
	c6.484,2.115,13.454-1.427,15.569-7.911l11.487-35.219c2.115-6.484-1.427-13.454-7.911-15.569l-27.242-8.885
	c0.732-11.387-0.099-22.949-2.619-34.359l25.501-12.958c6.08-3.089,8.504-10.523,5.415-16.603l-16.782-33.026
	c-3.089-6.08-10.523-8.504-16.603-5.415l-25.501,12.958c-7.73-8.762-16.58-16.251-26.208-22.373l8.885-27.242
	c2.115-6.484-1.427-13.454-7.911-15.569l-35.22-11.486c-6.484-2.115-13.454,1.427-15.569,7.911l-8.885,27.242
	c-11.387-0.732-22.949,0.099-34.359,2.619l-12.958-25.501c-3.089-6.08-10.523-8.504-16.603-5.415L69.74,24.25
	c-6.08,3.089-8.504,10.523-5.415,16.603l12.958,25.501c-8.762,7.73-16.251,16.58-22.373,26.208l-18.724-6.107l-8.518-2.778
	c-6.484-2.115-13.454,1.427-15.569,7.911L0.613,126.807c-2.115,6.484,1.427,13.454,7.911,15.569l27.242,8.885
	c-0.732,11.387,0.099,22.949,2.619,34.359l-25.501,12.958c-6.08,3.089-8.504,10.523-5.415,16.603l16.782,33.026
	c3.089,6.08,10.523,8.504,16.603,5.415l25.501-12.958c7.73,8.762,16.58,16.251,26.208,22.373l-8.885,27.242
	c-2.115,6.484,1.427,13.454,7.911,15.569l35.219,11.487c6.484,2.115,13.454-1.427,15.569-7.911l8.885-27.242
	c11.387,0.732,22.949-0.1,34.359-2.619l12.958,25.501c3.089,6.08,10.523,8.504,16.603,5.415l33.026-16.782
	c6.08-3.089,8.504-10.523,5.415-16.603L240.664,251.592z M198.131,236.033c-42.492,21.591-94.627,4.588-116.218-37.904
	s-4.588-94.627,37.904-116.218s94.627-4.588,116.218,37.904S240.622,214.442,198.131,236.033z"/>
<path style="fill:#61AE9F;" d="M253.866,110.754C227.279,58.43,163.08,37.492,110.755,64.08s-73.262,90.787-46.674,143.111
	s90.787,73.262,143.111,46.675C259.516,227.278,280.454,163.078,253.866,110.754z M198.131,236.033
	c-42.491,21.592-94.627,4.588-116.218-37.903c-21.591-42.492-4.588-94.627,37.904-116.218
	c42.491-21.591,94.626-4.588,116.218,37.904C257.626,162.307,240.622,214.442,198.131,236.033z"/>
<path style="fill:#4A7273;" d="M235.659,350.192l-8.115,32.957c-0.842,3.419-3.905,5.708-7.276,5.708
	c-0.594,0-1.196-0.071-1.799-0.22c-4.022-0.99-6.479-5.054-5.489-9.076l3.575-14.521c-18.633,5.201-37.856,7.781-57.072,7.781
	c-35.711,0-71.396-8.875-103.217-26.238c-3.637-1.984-4.976-6.54-2.992-10.176c1.983-3.636,6.54-4.975,10.176-2.992
	c44.57,24.318,97.271,30.73,145.922,18.026l-15.743-3.877c-4.022-0.99-6.479-5.054-5.489-9.076c0.99-4.021,5.051-6.478,9.075-5.489
	l32.956,8.115C234.192,342.107,236.649,346.17,235.659,350.192z M123.858,191.6l9.283-27.849c0.003-0.011,0.007-0.021,0.011-0.032
	l12.564-37.691c1.904-5.715,7.232-9.556,13.258-9.556c6.023,0,11.352,3.84,13.257,9.554l12.562,37.686
	c0.004,0.014,0.01,0.028,0.014,0.042l9.282,27.846c1.31,3.93-0.813,8.177-4.743,9.487c-0.787,0.262-1.587,0.387-2.373,0.387
	c-3.141,0-6.066-1.987-7.114-5.13l-7.624-22.872h-26.522l-7.624,22.872c-1.311,3.929-5.559,6.051-9.487,4.744
	C124.672,199.777,122.549,195.53,123.858,191.6z M150.712,158.472h16.522l-8.261-24.783L150.712,158.472z"/>
<g>
</g>
<g>
</g>
<g>
</g>
<g>
</g>
<g>
</g>
<g>
</g>
<g>
</g>
<g>
</g>
<g>
</g>
<g>
</g>
<g>
</g>
<g>
</g>
<g>
</g>
<g>
</g>
<g>
</g>
</svg>
