<svg id="Capa_1" enable-background="new 0 0 512 512" height="512" viewBox="0 0 512 512" width="512" xmlns="http://www.w3.org/2000/svg"><g><g><g><g><path d="m320.212 478.991h-128.424l36.054-151.685h56.316z" fill="#e2f4ff"/><g><path d="m452.421 45.635c0-16.166-13.105-29.272-29.272-29.272h-393.877c-16.167 0-29.272 13.106-29.272 29.272v284.549l14.551 26.895h437.871v-311.444z" fill="#d1ecf9"/><path d="m482.728 16.363h-67.305c16.166 0 29.272 13.105 29.272 29.272v315.299c0 16.166-13.105 29.272-29.272 29.272h67.305c16.166 0 29.272-13.105 29.272-29.272v-315.299c0-16.166-13.105-29.272-29.272-29.272z" fill="#afe2f7"/><path d="m452.421 360.934v-30.75h-452.421v30.75c0 16.166 13.105 29.272 29.272 29.272h393.878c16.166 0 29.271-13.106 29.271-29.272z" fill="#f2f9ff"/><path d="m512 360.934v-30.75h-67.305v30.75c0 16.166-13.105 29.272-29.272 29.272h67.305c16.167 0 29.272-13.106 29.272-29.272z" fill="#d1ecf9"/></g><path d="m298.721 480.585c0-19.413-15.738-35.151-35.151-35.151h-78.013c-19.413 0-35.151 15.737-35.151 35.151 0 8.313 6.739 15.052 15.052 15.052h129.27l3.992-5.271v-9.781z" fill="#d1ecf9"/><path d="m326.443 445.434h-66.864c19.413 0 35.151 15.737 35.151 35.151v15.052h51.812c8.313 0 15.052-6.739 15.052-15.052 0-19.414-15.738-35.151-35.151-35.151z" fill="#afe2f7"/></g><g><g><path d="m48.681 249.339v-148.58c0-13.042 10.572-23.614 23.614-23.614h142.669c13.042 0 23.614 10.572 23.614 23.614v148.58c0 13.042-10.572 23.614-23.614 23.614h-142.669c-13.041 0-23.614-10.572-23.614-23.614z" fill="#f2f9ff"/><g><g><g><path d="m203.982 170.755c.158-.858-.698-1.567-1.502-1.228-3.136 1.323-11.117 4.473-30.368 3.356-30.735-1.783-28.376 37.85-28.376 37.85s48.563 23.541 60.246-39.978z" fill="#c6e873"/><g><path d="m143.735 243.172c-4.268 0-7.726-3.459-7.726-7.726v-70.244c0-4.268 3.459-7.726 7.726-7.726s7.726 3.459 7.726 7.726v70.244c.001 4.267-3.458 7.726-7.726 7.726z" fill="#a8d340"/></g></g></g><path d="m214.984 272.953c-14.225-22.411-40.841-37.507-71.354-37.507s-57.13 15.096-71.354 37.507z" fill="#c6865c"/></g></g><g><g><path d="m463.319 123.861h-176.161c-4.268 0-7.726-3.459-7.726-7.726 0-4.268 3.459-7.726 7.726-7.726h176.161c4.268 0 7.726 3.459 7.726 7.726s-3.458 7.726-7.726 7.726z" fill="#f2f9ff"/></g><g><path d="m463.319 163.237h-176.161c-4.268 0-7.726-3.459-7.726-7.726s3.459-7.726 7.726-7.726h176.161c4.268 0 7.726 3.459 7.726 7.726s-3.458 7.726-7.726 7.726z" fill="#f2f9ff"/></g><g><path d="m463.319 202.613h-176.161c-4.268 0-7.726-3.459-7.726-7.726s3.459-7.726 7.726-7.726h176.161c4.268 0 7.726 3.459 7.726 7.726s-3.458 7.726-7.726 7.726z" fill="#f2f9ff"/></g><g><path d="m375.238 241.989h-88.08c-4.268 0-7.726-3.459-7.726-7.726s3.459-7.726 7.726-7.726h88.08c4.268 0 7.726 3.459 7.726 7.726s-3.458 7.726-7.726 7.726z" fill="#f2f9ff"/></g></g></g></g></g><path d="m88.052 132.816c-.261-.833.503-1.64 1.342-1.401 3.273.933 11.409 1.981 30.551-.348 37.056-4.507 31.465 34.181 31.465 34.181s-44.065 29.203-63.358-32.432z" fill="#c6e873"/></g></svg>