<svg id="Capa_1" enable-background="new 0 0 512 512" height="512" viewBox="0 0 512 512" width="512" xmlns="http://www.w3.org/2000/svg"><g><ellipse cx="320.381" cy="227.086" fill="#ffe470" rx="159.912" ry="159.912" transform="matrix(.707 -.707 .707 .707 -66.737 293.056)"/><path d="m320.381 67.173v319.825c88.177 0 159.913-71.737 159.913-159.912 0-88.176-71.736-159.912-159.913-159.913z" fill="#fabe2c"/><path d="m262.793 192.309c-1.973 0-3.943.066-5.908.198-12.749-33.301-45.148-56.257-81.743-56.257-36.596 0-68.994 22.957-81.742 56.257-1.966-.132-3.937-.198-5.909-.198-48.242 0-87.49 39.248-87.49 87.49s39.248 87.49 87.49 87.49h175.303c48.242 0 87.49-39.248 87.49-87.49s-39.249-87.49-87.491-87.49z" fill="#7dc1fc"/><path d="m262.793 367.289c48.242 0 87.49-39.248 87.49-87.49s-39.248-87.49-87.49-87.49c-1.973 0-3.943.066-5.908.198-12.749-33.301-45.148-56.257-81.743-56.257v231.04h87.651z" fill="#4895ff"/><path d="m422.854 266.533c-2.094 0-4.188.073-6.273.22-12.928-34.057-46.007-57.56-83.381-57.56s-70.453 23.503-83.381 57.56c-2.086-.146-4.18-.22-6.273-.22-49.155 0-89.146 39.991-89.146 89.147 0 49.155 39.991 89.146 89.146 89.146h179.309c49.155 0 89.146-39.991 89.146-89.146-.001-49.156-39.992-89.147-89.147-89.147z" fill="#97e4fd"/><path d="m422.854 444.827c49.155 0 89.146-39.991 89.146-89.146 0-49.156-39.991-89.147-89.146-89.147-2.094 0-4.188.073-6.273.22-12.928-34.057-46.007-57.56-83.381-57.56v235.633z" fill="#7dc1fc"/></g></svg>